<?xml version="1.0" encoding="UTF-8" standalone="no"?>
<svg
   width="120.90446mm"
   height="35.810917mm"
   viewBox="0 0 1427.9999 422.96197"
   version="1.1"
   id="svg3"
   sodipodi:docname="nikuu.svg"
   inkscape:version="1.1.1 (3bf5ae0d25, 2021-09-20)"
   xmlns:inkscape="http://www.inkscape.org/namespaces/inkscape"
   xmlns:sodipodi="http://sodipodi.sourceforge.net/DTD/sodipodi-0.dtd"
   xmlns="http://www.w3.org/2000/svg"
   xmlns:svg="http://www.w3.org/2000/svg">
  <defs
     id="defs7" />
  <sodipodi:namedview
     id="namedview5"
     pagecolor="#505050"
     bordercolor="#eeeeee"
     borderopacity="1"
     inkscape:pageshadow="0"
     inkscape:pageopacity="0"
     inkscape:pagecheckerboard="0"
     inkscape:document-units="mm"
     showgrid="false"
     inkscape:zoom="1"
     inkscape:cx="363"
     inkscape:cy="54.5"
     inkscape:window-width="1920"
     inkscape:window-height="1009"
     inkscape:window-x="-8"
     inkscape:window-y="-8"
     inkscape:window-maximized="1"
     inkscape:current-layer="svg3"
     fit-margin-top="0"
     fit-margin-left="0"
     fit-margin-right="0"
     fit-margin-bottom="0" />
  <path
     id="Zaznaczenie"
     fill="none"
     stroke="black"
     stroke-width="1"
     d="m 99,208.80382 c 0,0 0,22 0,22 0,0 1,16 1,16 0,0 0,127 0,127 -0.5,42.38 -51.47,64.66 -83,36.82 -4.67,-4.13 -8.8,-9.25 -11.63,-14.82 -3.84,-7.58 -5.36,-15.57 -5.37,-24 0,0 0,-320.999996 0,-320.999996 0.05,-34.04 28.95,-56.9300004 62,-49.3500004 5.2,1.19 10.29,2.69 15,5.25 17.33,9.4300004 25.21,29.7200004 36.77,45.1000004 0,0 8,12 8,12 0,0 16.87,24 16.87,24 0,0 5.96,10 5.96,10 0,0 6.35,8.999996 6.35,8.999996 0,0 31.01,45 31.01,45 0,0 5.99,10 5.99,10 0,0 10.82,16 10.82,16 0,0 21.23,31 21.23,31 0,0 0,-154.999996 0,-154.999996 0.5,-42.38 51.47,-64.66 83,-36.82 4.67,4.13 8.8,9.25 11.63,14.82 3.84,7.58 5.36,15.57 5.37,24 0,0 0,311.999996 0,311.999996 -0.01,8.43 -1.53,16.42 -5.37,24 -16.35,32.24 -60.75,35.54 -84.54,10 -6.21,-6.67 -10.68,-14.59 -15.86,-22 0,0 -41.75,-62 -41.75,-62 0,0 -7.25,-11 -7.25,-11 0,0 -6.53,-9 -6.53,-9 0,0 -5.3,-9 -5.3,-9 0,0 -37.36,-54 -37.36,-54 0,0 -5.99,-10 -5.99,-10 0,0 -11.05,-16 -11.05,-16 z M 422,20.803824 c 13.87,-25.8200004 52.64,-15.7700004 53,15 0.26,22.4 -11.32,32.46 -27,46.28 0,0 -10,9.44 -10,9.44 0,0 -11,10.259996 -11,10.259996 -1.51,1.44 -3.75,3.82 -6,3.82 -2.25,0 -4.49,-2.38 -6,-3.82 0,0 -11,-10.259996 -11,-10.259996 0,0 -10,-9.44 -10,-9.44 -13.78,-12.14 -26.77,-23.39 -27,-43.28 -0.11,-9.57 1.87,-17.93 9.09,-24.82 13.54,-12.9000004 35.03,-9.7200004 43.91,6.82 0,0 2,0 2,0 z M 619,216.80382 c 3.17,-6.7 18.03,-20.03 24,-26 0,0 34.91,-35 34.91,-35 10.63,-11.41 18.57,-22.41 34.09,-27.48 32.03,-10.46 65.65,12.28 66,46.48 0.24,23.93 -11.36,33.36 -27,49 0,0 -16,17 -16,17 0,0 -16.99,17 -16.99,17 -2.23,2.31 -4.91,4.48 -3.9,8 1.12,3.9 12.63,19 15.66,23 0,0 31.32,42 31.32,42 0,0 8.45,12 8.45,12 5.24,9.03 7.64,21.67 6.02,32 -5.38,34.42 -41.61,53.32 -72.56,37.63 -14.87,-7.54 -21.52,-22 -31.23,-34.63 0,0 -21.04,-27 -21.04,-27 -3.66,-4.93 -7.52,-9.22 -9.73,-15 -4.21,3.02 -19.93,17.91 -21.98,22 -1.21,2.43 -1.01,5.35 -1.02,8 0,0 0,7 0,7 -0.11,22.66 -14.72,42.76 -37,48.34 -33.11,8.28 -62.95,-15.12 -63,-49.34 0,0 0,-194 0,-194 0.02,-11.85 3.11,-22.58 10.52,-32 18.26,-23.22 53.34,-25.6 74.47,-4.96 4.36,4.27 8.1,9.36 10.57,14.96 3.23,7.32 4.43,14.06 4.44,22 0.01,8.58 -0.94,32.19 1,39 z m 427,-90.56 c 31.44,-4.03 56.95,18.95 57,50.56 0,0 0,108 0,108 -0.58,49.07 -32.12,103.41 -77,124.68 -14.74,6.99 -39.7,13.29 -56,13.32 0,0 -19,0 -19,0 -14.87,-0.18 -33.92,-6.88 -47,-13.78 -10.99,-5.8 -20.81,-13.06 -30,-21.39 -26.39,-23.9 -46.94,-69.01 -47,-104.83 0,0 0,-105 0,-105 0.01,-9.07 1.86,-18.08 6.46,-26 17.3,-29.79 58.66,-33.71 81.36,-8 6.1,6.91 11.23,17.7 11.8,27 0,0 -0.62,12 -0.62,12 0,0 0,101 0,101 0.01,7.06 0.91,12.5 3.9,19 2.22,4.82 5.31,8.31 9.1,11.96 3.51,3.38 6.49,5.68 11,7.58 27.46,11.56 53.96,-9.86 54,-38.54 0,0 0,-82 0,-82 0,0 0,-17 0,-17 0,0 -0.9,-13 -0.9,-13 0.13,-2.77 1.3,-8.29 2.11,-11 5.89,-19.65 21.21,-30.94 40.79,-34.56 z m 325,0 c 31.44,-4.03 56.95,18.95 57,50.56 0,0 0,108 0,108 -0.58,49.07 -32.12,103.41 -77,124.68 -14.74,6.99 -39.7,13.29 -56,13.32 0,0 -19,0 -19,0 -14.87,-0.18 -33.92,-6.88 -47,-13.78 -10.99,-5.8 -20.81,-13.06 -30,-21.39 -26.39,-23.9 -46.94,-69.01 -47,-104.83 0,0 0,-105 0,-105 0.01,-9.07 1.86,-18.08 6.46,-26 17.3,-29.79 58.66,-33.71 81.36,-8 6.1,6.91 11.23,17.7 11.8,27 0,0 -0.62,12 -0.62,12 0,0 0,101 0,101 0.01,7.06 0.91,12.5 3.9,19 2.22,4.82 5.31,8.31 9.1,11.96 3.51,3.38 6.49,5.68 11,7.58 27.46,11.56 53.96,-9.86 54,-38.54 0,0 0,-82 0,-82 0,0 0,-17 0,-17 0,0 -0.9,-13 -0.9,-13 0.13,-2.77 1.3,-8.29 2.11,-11 5.89,-19.65 21.21,-30.94 40.79,-34.56 z m -957,1 c 31.44,-4.03 56.95,18.95 57,50.56 0,0 0,194 0,194 -0.02,11.85 -3.11,22.58 -10.52,32 -18.26,23.22 -53.34,25.6 -74.47,4.96 -4.36,-4.27 -8.1,-9.36 -10.57,-14.96 -3.23,-7.32 -4.43,-14.06 -4.44,-22 0,0 0,-194 0,-194 0.04,-26.94 16.75,-45.71 43,-50.56 z"
     style="fill:#ffffff;fill-opacity:1;stroke:none" />
</svg>
